<?xml version="1.0" encoding="utf-8"?>
<!-- Generator: Adobe Illustrator 24.3.0, SVG Export Plug-In . SVG Version: 6.00 Build 0)  -->
<svg version="1.1" id="Capa_1" xmlns="http://www.w3.org/2000/svg" xmlns:xlink="http://www.w3.org/1999/xlink" x="0px" y="0px"
	 viewBox="0 0 141.7 141.7" style="enable-background:new 0 0 141.7 141.7;" xml:space="preserve">
<style type="text/css">
	.st0{fill:#FFFFFF;}
</style>
<path class="st0" d="M7.2,70.7c0-9.3,0-18.7,0-28c0-5,0.5-9.9,2.4-14.6c5-12.5,17.1-20.9,30.5-21C60.7,7,81.2,7,101.8,7.1
	c16.7,0.1,30.4,12.4,32.6,28.9c0.2,1.5,0.4,3.1,0.4,4.7c0,20.1,0.1,40.3,0,60.5c-0.1,10.8-4.5,19.6-12.8,26.3
	c-5.9,4.8-12.8,7-20.4,7.1c-20.3,0.1-40.7,0.2-61,0c-15.1-0.2-27.3-9.3-31.8-22.9c-1.4-4.2-1.6-8.6-1.6-12.9
	C7.2,89.4,7.2,80.1,7.2,70.7C7.2,70.7,7.2,70.7,7.2,70.7z M70.5,123.4C70.5,123.4,70.5,123.5,70.5,123.4c9.9,0,19.9,0.1,29.8,0
	c2.1,0,4.2-0.1,6.2-0.6c10.1-2.4,17-10.9,17.1-21.7c0.1-20.5,0.2-41,0-61.5c-0.1-10.7-8.2-19.7-18.9-21.2c-2.3-0.3-4.7-0.4-7-0.4
	c-18.4,0-36.8,0-55.2,0c-0.8,0-1.6,0-2.3,0c-9.1,0.6-15.9,4.8-19.9,13.1c-1.7,3.5-2.1,7.2-2.1,11c0,15.4,0,30.9,0,46.3
	c0,4.3-0.1,8.6,0,12.8c0.4,10.1,6.3,18.3,15.5,21.1c2.5,0.8,5.3,1,8,1C51.3,123.5,60.9,123.4,70.5,123.4z"/>
<path class="st0" d="M70.8,103.5c-18.2-0.1-32.6-14.7-32.6-32.9c0.1-18,14.8-32.7,32.7-32.6c18.3,0.1,32.9,14.7,32.8,33
	C103.7,89.1,89.1,103.6,70.8,103.5z M49.4,70.8c0,12.1,9.7,21.8,21.7,21.8c12,0,21.6-9.6,21.7-21.5c0.1-12-9.4-21.8-21.3-21.9
	C59.2,49,49.4,58.5,49.4,70.8z"/>
<path class="st0" d="M104.7,29c4.1,0,7.7,3.6,7.6,7.7c-0.1,4-3.6,7.5-7.6,7.5c-4.2,0-7.6-3.5-7.6-7.7C97.2,32.4,100.6,29,104.7,29z"
	/>
</svg>
