<?xml version="1.0" encoding="utf-8"?>
<!-- Generator: Adobe Illustrator 24.3.0, SVG Export Plug-In . SVG Version: 6.00 Build 0)  -->
<svg version="1.1" id="Capa_1" xmlns="http://www.w3.org/2000/svg" xmlns:xlink="http://www.w3.org/1999/xlink" x="0px" y="0px"
	 viewBox="0 0 141.7 141.7" style="enable-background:new 0 0 141.7 141.7;" xml:space="preserve">
<style type="text/css">
	.st0{fill:#FFFFFF;stroke:#FFFFFF;stroke-width:3.5;stroke-miterlimit:10;}
</style>
<path class="st0" d="M71,118.5c-17.3,0-34.5,0-51.8,0c-3.1,0-6-0.8-8.5-2.7c-2.2-1.7-3.4-3.9-3.4-6.8c0-25.4,0-50.8,0-76.2
	c0-2.9,1.2-5.2,3.5-6.9c2.7-1.9,5.8-2.6,9-2.6c18.7,0,37.3,0,56,0c15.5,0,31,0,46.6,0c2.8,0,5.5,0.7,7.9,2.1
	c2.9,1.7,4.3,4.2,4.3,7.5c0,11.4,0,22.8,0,34.2c0,13.7,0,27.3,0,40.9c0,5.4-2.8,8.8-8.1,10c-1.4,0.3-2.9,0.5-4.3,0.5
	C105.2,118.5,88.1,118.5,71,118.5C71,118.5,71,118.5,71,118.5z M71.1,29.2L71.1,29.2c-0.5,0-1.1,0-1.6,0c-16.5,0-33,0-49.5,0
	c-1.2,0-2.5,0.4-3.5,1c-1.4,0.8-1.5,2.6-0.3,3.7c0.3,0.3,0.7,0.6,1.1,0.9c16.7,12.5,33.4,25,50.1,37.5c2.8,2.1,4.7,2.1,7.5,0
	c8.9-6.7,17.9-13.4,26.8-20.1c7.9-5.9,15.8-11.8,23.7-17.8c0.9-0.7,1.5-1.4,1.4-2.6c-0.2-1.2-1-1.9-2-2.3c-0.7-0.2-1.4-0.4-2.2-0.4
	C105.4,29.2,88.2,29.2,71.1,29.2z M70.9,112.6L70.9,112.6c17.2,0,34.3,0,51.5,0c0.8,0,1.8-0.2,2.5-0.5c2.2-1,2.3-3.2,0.4-4.7
	C111.3,96.8,97.1,86.2,83,75.6c-0.6-0.5-1-0.4-1.6,0c-1.8,1.1-3.5,2.5-5.4,3.2c-5.3,1.9-10.3,0.9-14.7-2.6c-1.5-1.2-1.5-1.2-3.1,0
	C48.1,83.8,38,91.3,28,98.9c-3.8,2.8-7.6,5.6-11.4,8.5c-1.8,1.4-1.7,3.4,0.3,4.5c0.9,0.4,2,0.6,3,0.6
	C36.9,112.6,53.9,112.6,70.9,112.6z M87.9,70.9c12.9,9.7,25.8,19.3,38.7,29c0-19.4,0-38.6,0-58C113.7,51.6,100.9,61.2,87.9,70.9z
	 M15.4,41.9c0,19.4,0,38.6,0,58c13-9.7,25.8-19.3,38.8-29C41.2,61.2,28.4,51.6,15.4,41.9z"/>
</svg>
