<?xml version="1.0" encoding="utf-8"?>
<!-- Generator: Adobe Illustrator 24.3.0, SVG Export Plug-In . SVG Version: 6.00 Build 0)  -->
<svg version="1.1" id="Capa_1" xmlns="http://www.w3.org/2000/svg" xmlns:xlink="http://www.w3.org/1999/xlink" x="0px" y="0px"
	 viewBox="0 0 141.7 141.7" style="enable-background:new 0 0 141.7 141.7;" xml:space="preserve">
<style type="text/css">
	.st0{fill:#FFFFFF;}
</style>
<g>
	<path class="st0" d="M6.9,134.7c0.5-1.6,0.8-2.7,1.2-3.7c2.9-8.6,5.8-17.2,8.8-25.8c0.8-2.4,0.6-4.5-0.5-6.8
		c-19.4-37.1,2-81.8,43.1-90.1C94.9,1.2,129,25,134.1,60.7c4.5,31-15.2,60.8-45.7,68.9c-14.4,3.9-28.5,2.9-42.1-3.4
		c-3.4-1.6-6.7-1.7-10.2-0.5c-8.1,2.7-16.2,5.2-24.3,7.8C10.4,133.9,9,134.2,6.9,134.7z M23.5,119.1c5.4-1.7,10.4-3.1,15.3-4.9
		c2.7-1,4.9-0.8,7.4,0.7c11.2,6.2,23.1,8.2,35.8,5.8c28.9-5.4,48-34.5,41.3-62.9c-8.8-37.2-53.2-53.1-83.4-29.7
		C25,39.5,18.2,55,19.5,73.8C20,82,22.7,89.5,27,96.5c1.7,2.7,1.9,5.4,0.8,8.4c-1.3,3.5-2.5,7-3.6,10.6
		C23.8,116.5,23.8,117.6,23.5,119.1z"/>
	<path class="st0" d="M41.2,55.4c0-4.6,1.7-8.7,4.9-12.1c2.2-2.3,6.6-3.2,9.3-1.9c0.6,0.3,1.1,0.9,1.3,1.5c1.8,4,3.5,8,5.2,12.1
		c0.6,1.5,0.2,2.9-0.8,4.1c-0.9,1.2-1.8,2.5-2.8,3.8c-0.9,1.2-1.1,2.4-0.2,3.8c4.9,8,11.7,13.9,20.5,17.3c1.4,0.5,2.5,0.3,3.4-0.8
		c1.4-1.6,2.8-3.3,4.2-4.9c1.8-2,2.3-2.2,4.8-1.1c3.6,1.6,7,3.4,10.6,5.1c1.8,0.8,2.3,2.1,2.2,4c-0.2,3.7-1.6,6.6-4.6,8.8
		c-4.4,3.2-9.3,4.4-14.7,3c-12.9-3.3-23.9-9.6-32.1-20.3c-2.7-3.6-5.3-7.2-7.8-11C42.4,63.5,41.2,59.6,41.2,55.4z"/>
</g>
</svg>
