<?xml version="1.0" encoding="utf-8"?>
<!-- Generator: Adobe Illustrator 24.3.0, SVG Export Plug-In . SVG Version: 6.00 Build 0)  -->
<svg version="1.1" id="Capa_1" xmlns="http://www.w3.org/2000/svg" xmlns:xlink="http://www.w3.org/1999/xlink" x="0px" y="0px"
	 viewBox="0 0 283.46 113.39" style="enable-background:new 0 0 283.46 113.39;" xml:space="preserve">
<style type="text/css">
	.st0{fill:none;stroke:#000000;stroke-width:0.75;stroke-miterlimit:10;}
</style>
<g>
	<path d="M156.29,52.04c0,5.68,0,11.36,0,17.04c0,0.22-0.02,0.46-0.11,0.66c-0.23,0.52-0.66,0.74-1.23,0.74
		c-2.44-0.01-4.87,0-7.31,0c-0.05,0-0.11,0-0.16,0c-0.62-0.02-1.12-0.51-1.17-1.13c-0.01-0.12-0.01-0.23-0.01-0.35
		c0-5.04,0-10.09,0-15.13c0-0.11,0-0.22-0.02-0.33c-0.07-0.47-0.63-0.69-1.01-0.4c-0.07,0.06-0.13,0.12-0.19,0.18
		c-2.3,2.3-4.61,4.61-6.91,6.91c-0.6,0.6-1.33,0.61-1.93,0c-2.32-2.32-4.63-4.64-6.95-6.96c-0.17-0.17-0.34-0.29-0.59-0.27
		c-0.31,0.03-0.56,0.27-0.58,0.59c0,0.08,0,0.15,0,0.23c0,5.09,0,10.18,0,15.27c0,0.71-0.35,1.2-0.97,1.34
		c-0.12,0.03-0.26,0.03-0.39,0.03c-2.44,0-4.87,0-7.31,0c-0.85,0-1.35-0.51-1.35-1.36c0-11.38,0-22.76,0-34.14
		c0-0.65,0.26-1.1,0.78-1.29c0.56-0.21,1.03-0.06,1.45,0.36c5.43,5.44,10.87,10.88,16.31,16.33c0.22,0.22,0.44,0.38,0.76,0.26
		c0.11-0.04,0.22-0.12,0.3-0.2c2.82-2.81,5.63-5.63,8.45-8.45c2.66-2.66,5.32-5.32,7.98-7.99c0.36-0.36,0.79-0.49,1.27-0.35
		c0.45,0.13,0.75,0.44,0.86,0.91c0.03,0.15,0.03,0.31,0.03,0.47C156.29,40.69,156.29,46.36,156.29,52.04z"/>
	<path d="M193.76,33.65c1.16,0,2.33,0.01,3.49,0c0.57-0.01,0.95,0.22,1.21,0.74c2.72,5.46,5.45,10.91,8.17,16.37
		c0.24,0.47,0.61,0.65,1.03,0.5c0.24-0.09,0.38-0.28,0.49-0.5c1.09-2.19,2.18-4.37,3.28-6.56c1.64-3.29,3.29-6.57,4.92-9.86
		c0.23-0.47,0.6-0.69,1.12-0.69c2.37,0,4.73,0.01,7.1,0c0.97-0.01,1.42,0.91,1.04,1.68c-3.81,7.59-7.6,15.2-11.4,22.8
		c-1.93,3.87-3.87,7.73-5.8,11.6c-0.21,0.43-0.53,0.68-1.01,0.69c-0.49,0-0.81-0.25-1.03-0.69c-5.73-11.47-11.46-22.94-17.19-34.4
		c-0.43-0.86,0.07-1.67,1.03-1.67C191.39,33.65,192.58,33.65,193.76,33.65z"/>
	<path d="M243.92,70.4c-1.16,0-2.33-0.01-3.49,0c-0.57,0.01-0.95-0.24-1.2-0.75c-2.72-5.45-5.44-10.9-8.17-16.35
		c-0.23-0.45-0.6-0.63-1.02-0.49c-0.24,0.08-0.39,0.26-0.5,0.49c-1.03,2.07-2.06,4.13-3.09,6.2c-1.69,3.39-3.39,6.78-5.08,10.17
		c-0.25,0.51-0.62,0.74-1.19,0.74c-2.35-0.01-4.71,0-7.06,0c-0.59,0-1-0.29-1.14-0.81c-0.08-0.3-0.02-0.59,0.12-0.87
		c1.38-2.75,2.75-5.5,4.12-8.25c4.34-8.69,8.68-17.38,13.02-26.06c0.29-0.57,0.67-0.81,1.22-0.73c0.4,0.05,0.67,0.28,0.84,0.64
		c0.69,1.39,1.39,2.79,2.09,4.18c5.03,10.06,10.06,20.12,15.09,30.19c0.13,0.26,0.22,0.52,0.17,0.81c-0.1,0.55-0.53,0.9-1.1,0.91
		c-0.49,0.01-0.99,0-1.48,0C245.36,70.4,244.64,70.4,243.92,70.4z"/>
	<path d="M178.25,70.84c-5.81,0-11.62,0-17.43,0c-0.72,0-1.08-0.37-1.08-1.09c0-2.41,0-4.82,0-7.23c0-0.72,0.37-1.09,1.09-1.09
		c10.36,0,20.72,0,31.08,0c0.5,0,0.83,0.2,1.06,0.65c1.21,2.44,2.43,4.88,3.65,7.32c0.25,0.5,0.15,1.01-0.28,1.27
		c-0.17,0.1-0.4,0.16-0.6,0.16c-3.63,0.01-7.27,0.01-10.9,0.01C182.65,70.84,180.45,70.84,178.25,70.84z"/>
	<path d="M174.73,56.74c-4.6,0-9.21,0-13.81,0c-0.16,0-0.33,0-0.49-0.05c-0.43-0.12-0.68-0.49-0.68-1c0-1.28,0-2.56,0-3.84
		c0-1.16,0-2.31,0-3.47c0-0.41,0.13-0.75,0.51-0.93c0.18-0.09,0.41-0.11,0.61-0.12c1.87-0.01,3.74,0,5.6,0c6.11,0,12.22,0,18.33,0
		c0.21,0,0.45,0.03,0.63,0.12c0.17,0.09,0.33,0.26,0.42,0.43c1.26,2.49,2.5,4.98,3.74,7.47c0.32,0.63-0.08,1.31-0.79,1.37
		c-0.1,0.01-0.19,0.01-0.29,0.01C183.92,56.74,179.33,56.74,174.73,56.74z"/>
	<path d="M171.2,42.63c-3.46,0-6.91,0-10.37,0c-0.73,0-1.09-0.36-1.09-1.1c0-2.4,0-4.8,0-7.2c0-0.74,0.36-1.1,1.09-1.1
		c5.66,0,11.33,0,16.99,0c0.49,0,0.81,0.2,1.03,0.63c1.22,2.45,2.44,4.9,3.67,7.35c0.31,0.61,0.02,1.26-0.61,1.4
		c-0.11,0.02-0.23,0.02-0.35,0.02C178.11,42.63,174.66,42.63,171.2,42.63z"/>
</g>
<g>
	<path d="M219.44,78.96c-0.58,0.77-1.55,1.19-2.51,1.18c-1.69-0.01-3.15-1.42-3.11-3.28c0-1.5,1.12-2.86,2.63-3.15
		c0.15-0.02,0.33-0.03,0.51-0.03c0.86,0,1.77,0.3,2.31,0.92c0.3,0.34-0.21,0.82-0.51,0.46c-0.55-0.64-1.47-0.87-2.2-0.68
		c-1.08,0.26-2.03,1.21-2.03,2.5c0.02,1.39,1.14,2.55,2.41,2.58c0.73,0.01,1.49-0.31,1.92-0.89v-1.31h-1.77
		c-0.46,0-0.41-0.65,0-0.65h2.09c0.29,0,0.37,0.15,0.37,0.36v1.64C219.55,78.74,219.53,78.87,219.44,78.96z"/>
	<path d="M222.96,77.86v1.91c0,0.45-0.72,0.45-0.72,0.01v-5.65c0-0.21,0.15-0.34,0.36-0.34h2.33c1.7,0,2.57,0.96,2.57,2.12
		c0,0.99-0.54,1.71-1.75,1.92l1.59,1.72c0.37,0.37-0.17,0.81-0.49,0.47l-1.99-2.15H222.96z M222.96,77.24h1.99
		c1.29,0,1.85-0.6,1.83-1.34c-0.01-0.81-0.69-1.46-1.83-1.46h-1.99V77.24z"/>
	<path d="M229.62,76.81c0-1.54,1.04-2.86,2.61-3.11c0.36-0.05,0.7-0.04,1.04,0c1.52,0.24,2.69,1.5,2.69,3.11
		c0,2.05-1.48,3.35-3.15,3.35C231.03,80.16,229.62,78.9,229.62,76.81z M230.35,76.84c0,1.61,1.06,2.64,2.45,2.64
		c1.33,0,2.42-0.98,2.42-2.64c0-1.27-0.84-2.28-2.05-2.48c-0.3-0.04-0.58-0.04-0.86,0C231.13,74.55,230.35,75.5,230.35,76.84z"/>
	<path d="M243.46,74.05c0-0.48,0.74-0.48,0.74-0.01v3.24c0,1.89-1.47,2.84-2.9,2.84c-1.44,0-2.9-0.95-2.9-2.84v-3.24
		c0-0.43,0.74-0.43,0.74,0.01v3.23c0,2.84,4.33,2.84,4.33,0V74.05z"/>
	<path d="M247.67,78.2v1.58c0,0.45-0.71,0.44-0.71,0.01v-5.67c0-0.21,0.17-0.34,0.36-0.34h2.14c1.7,0,2.5,1.13,2.5,2.26
		c0,1.18-0.81,2.15-2.53,2.15H247.67z M247.67,77.56h1.76c1.31,0,1.85-0.77,1.83-1.52c-0.01-0.81-0.65-1.62-1.79-1.62h-1.8V77.56z"
		/>
</g>
<path class="st0" d="M261.99,80.12c-1.19,0-2.38,0-3.57,0c-0.51,0-0.87-0.22-1.1-0.68c-1.63-3.26-3.27-6.52-4.9-9.78
	c-1.1-2.19-2.2-4.38-3.29-6.57c-0.25-0.49-0.16-1.01,0.22-1.35c0.2-0.18,0.44-0.27,0.71-0.27c2.44,0,4.89,0,7.33,0
	c0.45,0,0.77,0.22,0.98,0.62c0.5,0.99,0.99,1.98,1.49,2.97c2.24,4.48,4.49,8.95,6.73,13.43c0.24,0.48,0.17,0.97-0.19,1.32
	c-0.21,0.21-0.46,0.31-0.76,0.31C264.42,80.12,263.2,80.12,261.99,80.12z"/>
<g>
	<path d="M24.16,50.64c0,2-1.44,3.2-3.84,3.2h-2.27v2.79h-1.31v-9.19h3.59C22.72,47.43,24.16,48.64,24.16,50.64z M22.85,50.64
		c0-1.31-0.88-2.06-2.56-2.06h-2.23v4.12h2.23C21.97,52.7,22.85,51.95,22.85,50.64z"/>
	<path d="M25.48,52.03c0-2.69,2.08-4.7,4.9-4.7c2.8,0,4.87,2,4.87,4.7s-2.08,4.7-4.87,4.7C27.56,56.73,25.48,54.72,25.48,52.03z
		 M33.94,52.03c0-2.04-1.52-3.53-3.56-3.53c-2.06,0-3.59,1.5-3.59,3.53c0,2.04,1.52,3.53,3.59,3.53
		C32.42,55.56,33.94,54.06,33.94,52.03z"/>
	<path d="M49.97,47.43l-3.07,9.19h-1.38l-2.51-7.34l-2.51,7.34H39.1l-3.07-9.19h1.35l2.48,7.47l2.59-7.47h1.21l2.53,7.51l2.54-7.51
		H49.97z"/>
	<path d="M58.26,55.48v1.14h-6.67v-9.19h6.49v1.14H52.9v2.82h4.61v1.12H52.9v2.97H58.26z"/>
	<path d="M66.54,56.63l-1.98-2.82c-0.18,0.01-0.38,0.03-0.58,0.03H61.7v2.8h-1.31v-9.19h3.59c2.39,0,3.84,1.21,3.84,3.21
		c0,1.42-0.74,2.44-2.02,2.9l2.18,3.09H66.54z M66.5,50.64c0-1.31-0.88-2.06-2.56-2.06H61.7v4.14h2.23
		C65.62,52.71,66.5,51.95,66.5,50.64z"/>
	<path d="M69.94,47.43h3.87c2.96,0,4.97,1.87,4.97,4.6c0,2.73-2.01,4.6-4.97,4.6h-3.87V47.43z M73.74,55.48
		c2.27,0,3.73-1.39,3.73-3.45c0-2.06-1.46-3.45-3.73-3.45h-2.48v6.91H73.74z"/>
	<path d="M92.24,54.14c0,1.58-1.2,2.48-3.52,2.48h-4.39v-9.19h4.12c2.11,0,3.3,0.89,3.3,2.38c0,1-0.51,1.69-1.23,2.05
		C91.56,52.15,92.24,52.92,92.24,54.14z M85.65,48.5v2.94h2.69c1.34,0,2.1-0.5,2.1-1.47c0-0.97-0.76-1.47-2.1-1.47H85.65z
		 M90.92,54.04c0-1.06-0.79-1.54-2.25-1.54h-3.02v3.06h3.02C90.13,55.56,90.92,55.1,90.92,54.04z"/>
	<path d="M97.61,53.45v3.18h-1.3v-3.21l-3.65-5.99h1.41L97,52.28l2.96-4.85h1.3L97.61,53.45z"/>
	<path d="M101.33,50.49c0-0.53,0.41-0.89,0.89-0.89c0.47,0,0.87,0.37,0.87,0.89c0,0.53-0.39,0.91-0.87,0.91
		C101.73,51.4,101.33,51.02,101.33,50.49z M101.33,55.8c0-0.53,0.41-0.89,0.89-0.89c0.47,0,0.87,0.37,0.87,0.89
		c0,0.53-0.39,0.91-0.87,0.91C101.73,56.71,101.33,56.32,101.33,55.8z"/>
</g>
</svg>
