<?xml version="1.0" encoding="utf-8"?>
<!-- Generator: Adobe Illustrator 24.3.0, SVG Export Plug-In . SVG Version: 6.00 Build 0)  -->
<svg version="1.1" id="Capa_1" xmlns="http://www.w3.org/2000/svg" xmlns:xlink="http://www.w3.org/1999/xlink" x="0px" y="0px"
	 viewBox="0 0 1133.86 566.93" style="enable-background:new 0 0 1133.86 566.93;" xml:space="preserve">
<style type="text/css">
	.st0{fill:#FFFFFF;}
</style>
<g>
	<path class="st0" d="M406.03,205.27c-0.23,0.59-0.47,1.17-0.68,1.77c-6.15,17.67-13.65,34.72-23.11,50.88
		c-14.5,24.77-33.09,46.03-55.22,64.25c-17.03,14.03-35.21,26.34-54.66,36.77c-1.34,0.72-2.77,1.28-4.22,1.75
		c-0.83,0.27-1.95,0.6-2.54-0.37c-0.59-0.97,0.19-1.76,0.8-2.45c1.56-1.8,3.52-3.08,5.58-4.23c3.52-1.97,7.09-3.87,10.55-5.95
		c18.61-11.15,35.98-23.95,51.56-39.09c18.1-17.6,32.48-37.91,43.71-60.5c9.53-19.17,16.81-39.18,22.3-59.85
		c4.08-15.36,7.28-30.9,9.55-46.62c1.04-7.18,2-14.37,2.81-21.58c0.54-4.82,0.73-9.69,1.08-14.53c0.5-6.8,1.02-13.61,1.47-20.41
		c0.09-1.36,0.65-2.38,1.59-3.28c2.24-2.14,4.8-3.78,7.73-4.79c0.67-0.23,1.36-0.42,2.06-0.5c1.15-0.13,1.64,0.31,1.62,1.46
		c-0.03,1.86-0.08,3.71-0.2,5.56c-0.36,5.72-0.73,11.44-1.16,17.15c-0.3,3.92-0.72,7.82-1.05,11.74c-0.32,3.81-0.61,7.62-0.89,11.42
		c-0.64,8.6-1.26,17.2-1.89,25.8c-0.48,6.64-0.94,13.28-1.43,19.92c-0.5,6.86-1.02,13.72-1.52,20.57
		c-0.37,5.01-0.72,10.02-1.08,15.02c-0.51,6.97-1.03,13.93-1.53,20.9c-0.48,6.59-0.94,13.17-1.42,19.76
		c-0.5,6.91-1.02,13.82-1.52,20.74c-0.37,5.01-0.72,10.02-1.08,15.02c-0.51,7.02-1.03,14.04-1.54,21.06
		c-0.47,6.48-0.93,12.96-1.4,19.43c-0.51,7.02-1.03,14.04-1.54,21.06c-0.47,6.48-0.93,12.96-1.4,19.43
		c-0.51,7.02-1.03,14.04-1.54,21.06c-0.48,6.53-0.94,13.07-1.41,19.6c-0.51,6.97-1.03,13.93-1.53,20.9
		c-0.48,6.53-0.94,13.07-1.41,19.6c-0.51,6.97-1.03,13.93-1.53,20.9c-0.38,5.28-0.81,10.56-1.09,15.84
		c-0.1,1.89-0.74,3.33-2.15,4.55c-2.08,1.82-4.36,3.28-6.95,4.23c-0.61,0.22-1.25,0.43-1.89,0.53c-1.76,0.28-2.22-0.1-2.11-1.85
		c0.33-5.06,0.71-10.13,1.08-15.19c0.39-5.39,0.8-10.78,1.2-16.16c0.51-6.91,1.02-13.82,1.53-20.74c0.37-5.12,0.73-10.23,1.1-15.35
		c0.61-8.38,1.23-16.76,1.85-25.15c0.37-5.01,0.72-10.02,1.08-15.02c0.51-7.02,1.03-14.04,1.54-21.06
		c0.47-6.48,0.93-12.96,1.4-19.43c0.51-7.02,1.03-14.04,1.54-21.06c0.47-6.53,0.94-13.07,1.41-19.6c0.51-6.97,1.03-13.93,1.53-20.9
		c0.48-6.53,0.94-13.07,1.41-19.6c0.51-6.97,1.03-13.93,1.53-20.9c0.47-6.42,0.93-12.85,1.4-19.27c0.3-4.08,0.6-8.16,0.9-12.25
		c0.02-0.31,0-0.63,0-0.94C406.16,205.32,406.1,205.29,406.03,205.27z"/>
	<path class="st0" d="M667.51,364.04c-8.56-0.35-17.14-0.48-25.68-1.1c-9.41-0.68-18.81-1.64-28.17-2.79
		c-21.35-2.61-42.41-6.86-63.32-11.88c-7.37-1.77-14.65-3.88-21.8-6.42c-10.41-3.71-20.08-8.76-28.91-15.42
		c-2.57-1.94-5.18-3.82-7.84-5.65c-3.32-2.28-6.94-3.64-11.07-3.26c-3.34,0.31-6.33,1.58-9.12,3.38c-3.92,2.53-7.44,5.56-10.54,9.03
		c-2.11,2.36-4.14,4.79-6,7.35c-9.42,12.97-16.09,27.19-19.35,42.94c-0.44,2.11-1.04,2.34-2.84,1.05c-3.1-2.24-5.23-5.22-6.53-8.81
		c-0.34-0.94-0.34-1.88-0.14-2.89c2.72-13.43,8-25.8,15.38-37.3c2.12-3.31,4.31-6.57,6.63-9.74c3.86-5.29,8.54-9.79,14.02-13.38
		c1.72-1.13,3.59-2.09,5.5-2.86c4.78-1.91,9.62-1.9,14.31,0.29c2.41,1.12,4.72,2.51,6.96,3.95c2.15,1.38,4.21,2.93,6.23,4.51
		c8.84,6.9,18.75,11.7,29.32,15.28c10.45,3.54,21.12,6.26,31.92,8.46c11.27,2.29,22.57,4.5,33.91,6.43
		c8.38,1.43,16.84,2.46,25.28,3.48c18.73,2.26,37.53,2.92,56.38,2.54c10.64-0.21,21.27-0.8,31.86-1.85c2.5-0.25,5-0.46,7.49-0.75
		c1.12-0.13,2.02,0.18,2.85,0.9c2.58,2.21,4.49,4.9,5.82,8.01c0.27,0.64,0.44,1.36,0.5,2.05c0.09,0.99-0.26,1.39-1.28,1.52
		c-1.62,0.22-3.25,0.4-4.88,0.56C698.83,363.19,683.19,363.97,667.51,364.04z"/>
	<path class="st0" d="M896.77,220.07c-0.46,7.96-0.98,16.57-1.45,25.18c-0.42,7.64-0.6,15.28-0.23,22.92
		c0.32,6.6,0.6,13.2,1.15,19.78c1.08,12.67,2.67,25.28,5.52,37.7c1.02,4.44,2.58,8.69,4.88,12.63c5.79,9.92,14.57,14.55,25.94,14.35
		c4.76-0.08,9.44-1.09,14.05-2.17c8.76-2.05,17.49-4.25,26.2-6.49c1.88-0.48,3.62-0.51,5.46,0.01c2.03,0.58,3.86,1.51,5.48,2.84
		c0.54,0.45,1.03,0.97,1.49,1.51c1.17,1.4,1.34,3.37-1.32,4.05c-5.39,1.39-10.74,2.9-16.13,4.28c-6.82,1.74-13.71,3.14-20.67,4.21
		c-14.53,2.23-27.59-1.52-39.59-9.55c-7.89-5.29-13.59-12.43-16.88-21.36c-1.32-3.57-2.42-7.25-3.27-10.96
		c-1.86-8.14-3.01-16.41-4.02-24.7c-1.94-16.02-2.66-32.09-2.18-48.21c0.2-6.87,0.74-13.73,1.12-20.6
		c0.25-4.52,0.52-9.05,0.74-13.57c0.54-11.07,1.08-22.14,1.57-33.21c0.36-8.07,0.64-16.15,0.99-24.22c0.1-2.38,0.88-3.15,3.25-3.02
		c3.75,0.21,6.96,1.68,9.55,4.44c0.78,0.83,1.14,1.78,1.09,2.97c-0.43,9.65-0.8,19.31-1.21,28.96c-0.21,5.02-0.47,10.03-0.7,15.05
		C897.32,208.41,897.06,213.91,896.77,220.07z"/>
	<path class="st0" d="M761.61,354.79c0.59-0.18,1.19-0.38,1.79-0.55c6.1-1.7,12.07-3.79,17.9-6.26c3.17-1.34,5.95-3.15,8-6.01
		c3.99-5.56,4.26-12.01,0.61-17.78c-0.35-0.55-0.73-1.08-1.11-1.62c-2.37-3.33-5.55-5.34-9.6-5.93c-5.29-0.77-10.55-1.8-15.92-1.86
		c-2.78-0.03-5.56,0.11-8.35,0.19c-0.26,0.01-0.52,0.1-0.89,0.18c-0.05,0.5-0.12,0.97-0.13,1.45c-0.2,14.2,0.06,28.39,1.05,42.56
		c0.75,10.78,1.74,21.54,2.93,32.28c1.54,13.99,3.85,27.88,6.55,41.7c0.53,2.73-0.57,5.22-3.07,6.6c-1.91,1.06-3.96,1.49-6.16,1.02
		c-3.03-0.65-4.97-2.39-5.55-5.49c-0.91-4.82-1.89-9.64-2.65-14.48c-1.36-8.67-2.7-17.36-3.84-26.06
		c-0.88-6.76-1.58-13.55-2.1-20.35c-0.71-9.25-1.34-18.51-1.7-27.78c-0.34-9-0.44-18.01-0.37-27.02c0.07-8.51,0.46-17.02,0.82-25.53
		c0.21-4.91,0.67-9.8,0.97-14.7c0.15-2.36,1.6-3.82,3.48-4.81c2.96-1.56,5.99-1.54,8.85,0.35c2.06,1.36,2.78,3.32,2.51,5.79
		c-0.34,3.03-0.54,6.09-0.7,9.14c-0.31,6.11-0.54,12.21-0.8,18.32c-0.02,0.48,0,0.96,0,1.54c2.06,0.22,4,0.39,5.94,0.65
		c5.73,0.77,11.48,1.48,17.08,2.96c5.28,1.39,10.47,3.08,15.46,5.3c4.16,1.85,7.8,4.38,10.49,8.13c2.53,3.52,4.02,7.39,3.59,11.79
		c-0.51,5.16-3.07,9.17-7.3,12.05c-1.79,1.22-3.81,2.13-5.81,2.98c-5.57,2.38-11.33,4.27-17.16,5.92c-1.25,0.35-2.45,0.32-3.71,0.08
		c-3.35-0.62-6.55-1.66-9.59-3.2C762.54,356.02,761.75,355.85,761.61,354.79z"/>
	<path class="st0" d="M854.78,363.54c-7.09-0.03-13.34-2.46-18.88-6.79c-4.25-3.32-7.45-7.48-9.49-12.51
		c-0.72-1.77-1-3.54-0.45-5.43c0.72-2.46,2.95-3.79,5.45-3.19c2.73,0.65,4.52,2.49,5.57,4.91c2.37,5.47,6.89,7.8,12.36,8.74
		c3.32,0.57,6.53,0.1,9.44-1.74c3.99-2.52,4.76-6.89,1.78-10.53c-2.68-3.28-6.26-5-10.38-5.71c-1.79-0.31-3.6-0.39-5.37,0.06
		c-2.32,0.58-4.23-0.21-5.88-1.68c-2.39-2.12-3.52-4.81-3.19-8.04c0.22-2.19,1.59-3.72,3.76-4.16c5.23-1.07,10.35-0.47,15.27,1.47
		c8.29,3.27,14.44,8.9,17.94,17.18c1.97,4.65,2.49,9.47,1.11,14.41c-1.43,5.09-4.64,8.7-9.37,10.96
		C861.41,362.95,858.18,363.65,854.78,363.54z"/>
	<path class="st0" d="M1025.45,359.2c-0.68,0.84-1.51,0.9-2.32,0.84c-3.81-0.28-7.41-1.28-10.68-3.3c-0.63-0.39-1.18-0.98-1.64-1.57
		c-5.39-6.89-8.39-14.73-9.3-23.41c-0.5-4.8-0.5-9.59,0.31-14.36c0.24-1.4,0.38-1.57,1.78-1.58c4.15-0.03,7.94,1.24,11.49,3.32
		c1.07,0.63,1.26,1.54,1.08,2.79c-1.57,10.77-0.43,21.12,5,30.75c1.02,1.8,2.25,3.48,3.39,5.21
		C1024.85,358.34,1025.16,358.77,1025.45,359.2z"/>
	<path class="st0" d="M1012.78,286.85c0.08-1.96,0.63-3.58,1.74-5c2.24-2.88,5.99-3.28,8.79-0.92c3.59,3.02,3.54,8.98-0.09,11.96
		c-2.39,1.96-5.54,1.88-7.89-0.24C1013.57,291.05,1012.75,289.05,1012.78,286.85z"/>
	<g>
		<path class="st0" d="M40.81,350.31l0,13.74l-1.39,0l0-10.99l-5.4,9.25l-0.69,0l-5.4-9.19l0,10.93l-1.39,0l0-13.74l1.2,0
			l5.97,10.19l5.91-10.19L40.81,350.31z"/>
		<path class="st0" d="M59.79,360.38l-7.66,0l-1.65,3.67l-1.51,0l6.28-13.74l1.43,0l6.28,13.74l-1.53,0L59.79,360.38z M59.26,359.2
			l-3.3-7.38l-3.3,7.38L59.26,359.2z"/>
		<path class="st0" d="M80.52,364.05l-3.14-4.42c-0.35,0.04-0.71,0.06-1.1,0.06l-3.69,0l0,4.36l-1.45,0l0-13.74l5.14,0
			c3.49,0,5.61,1.77,5.61,4.71c0,2.16-1.14,3.67-3.14,4.32l3.36,4.71L80.52,364.05z M80.44,355.02c0-2.2-1.45-3.45-4.2-3.45l-3.65,0
			l0,6.89l3.65,0C78.98,358.45,80.44,357.18,80.44,355.02z"/>
		<path class="st0" d="M91.21,350.3l1.45,0l0,13.74l-1.45,0L91.21,350.3z"/>
		<path class="st0" d="M111.65,360.37l-7.66,0l-1.65,3.67l-1.51,0l6.28-13.74l1.43,0l6.28,13.74l-1.53,0L111.65,360.37z
			 M111.12,359.2l-3.3-7.38l-3.3,7.38L111.12,359.2z"/>
	</g>
	<g>
		<path class="st0" d="M144.88,350.3l1.45,0l0,12.48l7.69,0l0,1.26l-9.15,0L144.88,350.3z"/>
		<path class="st0" d="M170.99,360.37l-7.66,0l-1.65,3.67l-1.51,0l6.28-13.74l1.43,0l6.28,13.74l-1.53,0L170.99,360.37z
			 M170.46,359.19l-3.3-7.38l-3.3,7.38L170.46,359.19z"/>
		<path class="st0" d="M181.92,358.17l0-7.87l1.45,0l0,7.81c0,3.26,1.53,4.75,4.2,4.75c2.69,0,4.22-1.49,4.22-4.75l0-7.81l1.41,0
			l0,7.87c0,3.95-2.12,5.99-5.63,5.99S181.92,362.12,181.92,358.17z"/>
		<path class="st0" d="M212.85,364.04l-3.14-4.42c-0.35,0.04-0.71,0.06-1.1,0.06l-3.69,0l0,4.36l-1.45,0l0-13.74l5.14,0
			c3.49,0,5.61,1.77,5.61,4.71c0,2.16-1.14,3.67-3.14,4.32l3.36,4.71L212.85,364.04z M212.78,355.01c0-2.2-1.45-3.45-4.2-3.45
			l-3.65,0l0,6.89l3.65,0C211.32,358.45,212.78,357.17,212.78,355.01z"/>
		<path class="st0" d="M232.17,360.37l-7.66,0l-1.65,3.67l-1.51,0l6.28-13.74l1.43,0l6.28,13.74l-1.53,0L232.17,360.37z
			 M231.64,359.19l-3.3-7.38l-3.3,7.38L231.64,359.19z"/>
	</g>
	<g>
		<path class="st0" d="M1066.85,360.36l-7.66,0l-1.65,3.67l-1.51,0l6.28-13.74l1.43,0l6.28,13.74l-1.53,0L1066.85,360.36z
			 M1066.32,359.18l-3.3-7.38l-3.3,7.38L1066.32,359.18z"/>
		<path class="st0" d="M1087.57,364.03l-3.14-4.42c-0.35,0.04-0.71,0.06-1.1,0.06l-3.69,0l0,4.36l-1.45,0l0-13.74l5.14,0
			c3.49,0,5.61,1.77,5.61,4.71c0,2.16-1.14,3.67-3.14,4.32l3.36,4.71L1087.57,364.03z M1087.49,355c0-2.2-1.45-3.45-4.2-3.45
			l-3.65,0l0,6.89l3.65,0C1086.04,358.44,1087.49,357.16,1087.49,355z"/>
		<path class="st0" d="M1100.74,351.54l-4.83,0v-1.26l11.11,0l0,1.26l-4.83,0l0,12.48l-1.45,0L1100.74,351.54z"/>
	</g>
</g>
</svg>
